<svg width="747" height="174" viewBox="0 0 747 174" fill="none" xmlns="http://www.w3.org/2000/svg">
<path d="M402.904 23.768C402.904 26.0293 402.371 28.1627 401.304 30.168C400.237 32.1733 398.531 33.816 396.184 35.096C393.837 36.3333 390.829 36.952 387.16 36.952H379.096V55H371.8V10.52H387.16C390.573 10.52 393.453 11.1173 395.8 12.312C398.189 13.464 399.96 15.0427 401.112 17.048C402.307 19.0533 402.904 21.2933 402.904 23.768ZM387.16 31C389.933 31 392.003 30.3813 393.368 29.144C394.733 27.864 395.416 26.072 395.416 23.768C395.416 18.904 392.664 16.472 387.16 16.472H379.096V31H387.16ZM407.431 37.208C407.431 33.6667 408.156 30.5307 409.607 27.8C411.1 25.0693 413.105 22.9573 415.623 21.464C418.183 19.928 420.999 19.16 424.071 19.16C426.844 19.16 429.255 19.7147 431.303 20.824C433.393 21.8907 435.057 23.2347 436.295 24.856V19.736H443.655V55H436.295V49.752C435.057 51.416 433.372 52.8027 431.239 53.912C429.105 55.0213 426.673 55.576 423.943 55.576C420.913 55.576 418.14 54.808 415.623 53.272C413.105 51.6933 411.1 49.5173 409.607 46.744C408.156 43.928 407.431 40.7493 407.431 37.208ZM436.295 37.336C436.295 34.904 435.783 32.792 434.759 31C433.777 29.208 432.476 27.8427 430.855 26.904C429.233 25.9653 427.484 25.496 425.607 25.496C423.729 25.496 421.98 25.9653 420.359 26.904C418.737 27.8 417.415 29.144 416.391 30.936C415.409 32.6853 414.919 34.776 414.919 37.208C414.919 39.64 415.409 41.7733 416.391 43.608C417.415 45.4427 418.737 46.8507 420.359 47.832C422.023 48.7707 423.772 49.24 425.607 49.24C427.484 49.24 429.233 48.7707 430.855 47.832C432.476 46.8933 433.777 45.528 434.759 43.736C435.783 41.9013 436.295 39.768 436.295 37.336ZM460.534 24.856C461.6 23.064 463.008 21.6773 464.758 20.696C466.55 19.672 468.662 19.16 471.094 19.16V26.712H469.238C466.379 26.712 464.203 27.4373 462.71 28.888C461.259 30.3387 460.534 32.856 460.534 36.44V55H453.238V19.736H460.534V24.856ZM475.368 37.208C475.368 33.6667 476.093 30.5307 477.544 27.8C479.037 25.0693 481.043 22.9573 483.56 21.464C486.12 19.928 488.936 19.16 492.008 19.16C494.781 19.16 497.192 19.7147 499.24 20.824C501.331 21.8907 502.995 23.2347 504.232 24.856V19.736H511.592V55H504.232V49.752C502.995 51.416 501.309 52.8027 499.176 53.912C497.043 55.0213 494.611 55.576 491.88 55.576C488.851 55.576 486.077 54.808 483.56 53.272C481.043 51.6933 479.037 49.5173 477.544 46.744C476.093 43.928 475.368 40.7493 475.368 37.208ZM504.232 37.336C504.232 34.904 503.72 32.792 502.696 31C501.715 29.208 500.413 27.8427 498.792 26.904C497.171 25.9653 495.421 25.496 493.544 25.496C491.667 25.496 489.917 25.9653 488.296 26.904C486.675 27.8 485.352 29.144 484.328 30.936C483.347 32.6853 482.856 34.776 482.856 37.208C482.856 39.64 483.347 41.7733 484.328 43.608C485.352 45.4427 486.675 46.8507 488.296 47.832C489.96 48.7707 491.709 49.24 493.544 49.24C495.421 49.24 497.171 48.7707 498.792 47.832C500.413 46.8933 501.715 45.528 502.696 43.736C503.72 41.9013 504.232 39.768 504.232 37.336ZM566.536 10.52V16.472H554.696V55H547.4V16.472H535.496V10.52H566.536ZM589.221 55.576C585.893 55.576 582.885 54.8293 580.197 53.336C577.509 51.8 575.397 49.6667 573.861 46.936C572.325 44.1627 571.557 40.9627 571.557 37.336C571.557 33.752 572.346 30.5733 573.925 27.8C575.504 25.0267 577.658 22.8933 580.389 21.4C583.12 19.9067 586.17 19.16 589.541 19.16C592.912 19.16 595.962 19.9067 598.693 21.4C601.424 22.8933 603.578 25.0267 605.157 27.8C606.736 30.5733 607.525 33.752 607.525 37.336C607.525 40.92 606.714 44.0987 605.093 46.872C603.472 49.6453 601.253 51.8 598.437 53.336C595.664 54.8293 592.592 55.576 589.221 55.576ZM589.221 49.24C591.098 49.24 592.848 48.792 594.469 47.896C596.133 47 597.477 45.656 598.501 43.864C599.525 42.072 600.037 39.896 600.037 37.336C600.037 34.776 599.546 32.6213 598.565 30.872C597.584 29.08 596.282 27.736 594.661 26.84C593.04 25.944 591.29 25.496 589.413 25.496C587.536 25.496 585.786 25.944 584.165 26.84C582.586 27.736 581.328 29.08 580.389 30.872C579.45 32.6213 578.981 34.776 578.981 37.336C578.981 41.1333 579.941 44.0773 581.861 46.168C583.824 48.216 586.277 49.24 589.221 49.24ZM612.306 37.208C612.306 33.6667 613.031 30.5307 614.482 27.8C615.975 25.0693 617.98 22.9573 620.498 21.464C623.058 19.928 625.895 19.16 629.01 19.16C631.314 19.16 633.575 19.672 635.794 20.696C638.055 21.6773 639.847 23 641.17 24.664V7.64H648.53V55H641.17V49.688C639.975 51.3947 638.311 52.8027 636.178 53.912C634.087 55.0213 631.676 55.576 628.946 55.576C625.874 55.576 623.058 54.808 620.498 53.272C617.98 51.6933 615.975 49.5173 614.482 46.744C613.031 43.928 612.306 40.7493 612.306 37.208ZM641.17 37.336C641.17 34.904 640.658 32.792 639.634 31C638.652 29.208 637.351 27.8427 635.73 26.904C634.108 25.9653 632.359 25.496 630.482 25.496C628.604 25.496 626.855 25.9653 625.234 26.904C623.612 27.8 622.29 29.144 621.266 30.936C620.284 32.6853 619.794 34.776 619.794 37.208C619.794 39.64 620.284 41.7733 621.266 43.608C622.29 45.4427 623.612 46.8507 625.234 47.832C626.898 48.7707 628.647 49.24 630.482 49.24C632.359 49.24 634.108 48.7707 635.73 47.832C637.351 46.8933 638.652 45.528 639.634 43.736C640.658 41.9013 641.17 39.768 641.17 37.336ZM673.409 55.576C670.081 55.576 667.073 54.8293 664.385 53.336C661.697 51.8 659.585 49.6667 658.049 46.936C656.513 44.1627 655.745 40.9627 655.745 37.336C655.745 33.752 656.534 30.5733 658.113 27.8C659.691 25.0267 661.846 22.8933 664.577 21.4C667.307 19.9067 670.358 19.16 673.729 19.16C677.099 19.16 680.15 19.9067 682.881 21.4C685.611 22.8933 687.766 25.0267 689.345 27.8C690.923 30.5733 691.713 33.752 691.713 37.336C691.713 40.92 690.902 44.0987 689.281 46.872C687.659 49.6453 685.441 51.8 682.625 53.336C679.851 54.8293 676.779 55.576 673.409 55.576ZM673.409 49.24C675.286 49.24 677.035 48.792 678.657 47.896C680.321 47 681.665 45.656 682.689 43.864C683.713 42.072 684.225 39.896 684.225 37.336C684.225 34.776 683.734 32.6213 682.753 30.872C681.771 29.08 680.47 27.736 678.849 26.84C677.227 25.944 675.478 25.496 673.601 25.496C671.723 25.496 669.974 25.944 668.353 26.84C666.774 27.736 665.515 29.08 664.577 30.872C663.638 32.6213 663.169 34.776 663.169 37.336C663.169 41.1333 664.129 44.0773 666.049 46.168C668.011 48.216 670.465 49.24 673.409 49.24ZM392.088 151.448C387.949 151.448 384.131 150.488 380.632 148.568C377.176 146.605 374.424 143.896 372.376 140.44C370.371 136.941 369.368 133.016 369.368 128.664C369.368 124.312 370.371 120.408 372.376 116.952C374.424 113.496 377.176 110.808 380.632 108.888C384.131 106.925 387.949 105.944 392.088 105.944C396.269 105.944 400.088 106.925 403.544 108.888C407.043 110.808 409.795 113.496 411.8 116.952C413.805 120.408 414.808 124.312 414.808 128.664C414.808 133.016 413.805 136.941 411.8 140.44C409.795 143.896 407.043 146.605 403.544 148.568C400.088 150.488 396.269 151.448 392.088 151.448ZM392.088 145.112C395.032 145.112 397.656 144.451 399.96 143.128C402.264 141.763 404.056 139.843 405.336 137.368C406.659 134.851 407.32 131.949 407.32 128.664C407.32 125.379 406.659 122.499 405.336 120.024C404.056 117.549 402.264 115.651 399.96 114.328C397.656 113.005 395.032 112.344 392.088 112.344C389.144 112.344 386.52 113.005 384.216 114.328C381.912 115.651 380.099 117.549 378.776 120.024C377.496 122.499 376.856 125.379 376.856 128.664C376.856 131.949 377.496 134.851 378.776 137.368C380.099 139.843 381.912 141.763 384.216 143.128C386.52 144.451 389.144 145.112 392.088 145.112ZM462.421 128.152C464.81 128.579 466.837 129.837 468.501 131.928C470.165 134.019 470.997 136.387 470.997 139.032C470.997 141.293 470.399 143.341 469.205 145.176C468.053 146.968 466.367 148.397 464.149 149.464C461.93 150.488 459.349 151 456.405 151H438.613V106.52H455.573C458.602 106.52 461.205 107.032 463.381 108.056C465.557 109.08 467.199 110.467 468.309 112.216C469.418 113.923 469.972 115.843 469.972 117.976C469.972 120.536 469.29 122.669 467.925 124.376C466.559 126.083 464.725 127.341 462.421 128.152ZM445.909 125.208H454.933C457.322 125.208 459.178 124.675 460.501 123.608C461.866 122.499 462.549 120.92 462.549 118.872C462.549 116.867 461.866 115.309 460.501 114.2C459.178 113.048 457.322 112.472 454.933 112.472H445.909V125.208ZM455.765 145.048C458.239 145.048 460.181 144.451 461.589 143.256C462.997 142.061 463.701 140.397 463.701 138.264C463.701 136.088 462.954 134.36 461.461 133.08C459.967 131.8 457.983 131.16 455.509 131.16H445.909V145.048H455.765ZM486.221 120.856C487.288 119.064 488.696 117.677 490.445 116.696C492.237 115.672 494.349 115.16 496.781 115.16V122.712H494.925C492.066 122.712 489.89 123.437 488.397 124.888C486.946 126.339 486.221 128.856 486.221 132.44V151H478.925V115.736H486.221V120.856ZM501.056 133.208C501.056 129.667 501.781 126.531 503.232 123.8C504.725 121.069 506.73 118.957 509.248 117.464C511.808 115.928 514.624 115.16 517.696 115.16C520.469 115.16 522.88 115.715 524.928 116.824C527.018 117.891 528.682 119.235 529.92 120.856V115.736H537.28V151H529.92V145.752C528.682 147.416 526.997 148.803 524.864 149.912C522.73 151.021 520.298 151.576 517.568 151.576C514.538 151.576 511.765 150.808 509.248 149.272C506.73 147.693 504.725 145.517 503.232 142.744C501.781 139.928 501.056 136.749 501.056 133.208ZM529.92 133.336C529.92 130.904 529.408 128.792 528.384 127C527.402 125.208 526.101 123.843 524.48 122.904C522.858 121.965 521.109 121.496 519.232 121.496C517.354 121.496 515.605 121.965 513.984 122.904C512.362 123.8 511.04 125.144 510.016 126.936C509.034 128.685 508.544 130.776 508.544 133.208C508.544 135.64 509.034 137.773 510.016 139.608C511.04 141.443 512.362 142.851 513.984 143.832C515.648 144.771 517.397 145.24 519.232 145.24C521.109 145.24 522.858 144.771 524.48 143.832C526.101 142.893 527.402 141.528 528.384 139.736C529.408 137.901 529.92 135.768 529.92 133.336ZM559.663 151.576C556.889 151.576 554.393 151.085 552.175 150.104C549.999 149.08 548.271 147.715 546.991 146.008C545.711 144.259 545.028 142.317 544.943 140.184H552.495C552.623 141.677 553.327 142.936 554.607 143.96C555.929 144.941 557.572 145.432 559.535 145.432C561.583 145.432 563.161 145.048 564.271 144.28C565.423 143.469 565.999 142.445 565.999 141.208C565.999 139.885 565.359 138.904 564.079 138.264C562.841 137.624 560.857 136.92 558.127 136.152C555.481 135.427 553.327 134.723 551.663 134.04C549.999 133.357 548.548 132.312 547.311 130.904C546.116 129.496 545.519 127.64 545.519 125.336C545.519 123.459 546.073 121.752 547.183 120.216C548.292 118.637 549.871 117.4 551.919 116.504C554.009 115.608 556.399 115.16 559.087 115.16C563.097 115.16 566.319 116.184 568.751 118.232C571.225 120.237 572.548 122.989 572.719 126.488H565.423C565.295 124.909 564.655 123.651 563.503 122.712C562.351 121.773 560.793 121.304 558.831 121.304C556.911 121.304 555.439 121.667 554.415 122.392C553.391 123.117 552.879 124.077 552.879 125.272C552.879 126.211 553.22 127 553.903 127.64C554.585 128.28 555.417 128.792 556.399 129.176C557.38 129.517 558.831 129.965 560.751 130.52C563.311 131.203 565.401 131.907 567.023 132.632C568.687 133.315 570.116 134.339 571.311 135.704C572.505 137.069 573.124 138.883 573.167 141.144C573.167 143.149 572.612 144.941 571.503 146.52C570.393 148.099 568.815 149.336 566.767 150.232C564.761 151.128 562.393 151.576 559.663 151.576ZM584.762 111.064C583.439 111.064 582.33 110.616 581.434 109.72C580.538 108.824 580.09 107.715 580.09 106.392C580.09 105.069 580.538 103.96 581.434 103.064C582.33 102.168 583.439 101.72 584.762 101.72C586.042 101.72 587.13 102.168 588.026 103.064C588.922 103.96 589.37 105.069 589.37 106.392C589.37 107.715 588.922 108.824 588.026 109.72C587.13 110.616 586.042 111.064 584.762 111.064ZM588.346 115.736V151H581.05V115.736H588.346ZM605.221 103.64V151H597.925V103.64H605.221Z" fill="#FAFAFA"/>
<path d="M671.315 136.672C667.145 136.672 663.752 140.065 663.752 144.235C663.752 148.406 667.145 151.798 671.315 151.798C675.486 151.798 678.878 148.406 678.878 144.235C678.878 140.065 675.485 136.672 671.315 136.672ZM671.315 148.017C669.23 148.017 667.534 146.321 667.534 144.235C667.534 142.15 669.23 140.454 671.315 140.454C673.401 140.454 675.097 142.15 675.097 144.235C675.097 146.321 673.401 148.017 671.315 148.017Z" fill="#FAFAFA"/>
<path d="M645.475 136.672C641.304 136.672 637.912 140.065 637.912 144.235C637.912 148.406 641.304 151.798 645.475 151.798C649.645 151.798 653.038 148.406 653.038 144.235C653.038 140.065 649.645 136.672 645.475 136.672ZM645.475 148.017C643.389 148.017 641.693 146.321 641.693 144.235C641.693 142.15 643.389 140.454 645.475 140.454C647.56 140.454 649.256 142.15 649.256 144.235C649.256 146.321 647.56 148.017 645.475 148.017Z" fill="#FAFAFA"/>
<path d="M676.408 115.024C676.087 114.386 675.433 113.983 674.718 113.983H664.76V117.765H673.552L678.701 128.005L682.08 126.306L676.408 115.024Z" fill="#FAFAFA"/>
<path d="M665.643 142.408H651.336V146.189H665.643V142.408Z" fill="#FAFAFA"/>
<path d="M639.802 142.408H633.248C632.204 142.408 631.357 143.254 631.357 144.298C631.357 145.343 632.204 146.189 633.248 146.189H639.803C640.847 146.189 641.693 145.343 641.693 144.298C641.693 143.254 640.847 142.408 639.802 142.408Z" fill="#FAFAFA"/>
<path d="M685.603 130.849L681.884 126.059C681.527 125.597 680.975 125.328 680.391 125.328H666.651V112.092C666.651 111.048 665.805 110.202 664.761 110.202H633.248C632.204 110.202 631.357 111.048 631.357 112.092C631.357 113.137 632.204 113.983 633.248 113.983H662.87V127.218C662.87 128.263 663.716 129.109 664.76 129.109H679.465L682.218 132.656V142.407H676.987C675.943 142.407 675.097 143.254 675.097 144.298C675.097 145.342 675.943 146.189 676.987 146.189H684.109C685.154 146.189 686 145.342 686 144.298V132.008C686 131.589 685.86 131.18 685.603 130.849Z" fill="#FAFAFA"/>
<path d="M639.676 132.828H630.979C629.935 132.828 629.088 133.674 629.088 134.718C629.088 135.763 629.935 136.609 630.979 136.609H639.676C640.721 136.609 641.567 135.763 641.567 134.718C641.567 133.674 640.721 132.828 639.676 132.828Z" fill="#FAFAFA"/>
<path d="M644.025 125.391H627.891C626.846 125.391 626 126.237 626 127.282C626 128.326 626.846 129.172 627.891 129.172H644.025C645.07 129.172 645.916 128.326 645.916 127.282C645.916 126.237 645.07 125.391 644.025 125.391Z" fill="#FAFAFA"/>
<path d="M647.113 117.954H630.979C629.935 117.954 629.088 118.8 629.088 119.844C629.088 120.889 629.935 121.735 630.979 121.735H647.113C648.158 121.735 649.004 120.889 649.004 119.844C649.004 118.8 648.158 117.954 647.113 117.954Z" fill="#FAFAFA"/>
<path d="M55.8098 6.072V14.84H37.5058V24.312H51.2018V32.824H37.5058V51H26.5618V6.072H55.8098ZM84.4738 51L75.1298 34.04H72.5058V51H61.5618V6.072H79.9298C83.4711 6.072 86.4791 6.69066 88.9538 7.928C91.4711 9.16533 93.3484 10.872 94.5858 13.048C95.8231 15.1813 96.4418 17.5707 96.4418 20.216C96.4418 23.2027 95.5884 25.8693 93.8818 28.216C92.2178 30.5627 89.7431 32.2267 86.4578 33.208L96.8258 51H84.4738ZM72.5058 26.296H79.2898C81.2951 26.296 82.7884 25.8053 83.7698 24.824C84.7938 23.8427 85.3058 22.456 85.3058 20.664C85.3058 18.9573 84.7938 17.6133 83.7698 16.632C82.7884 15.6507 81.2951 15.16 79.2898 15.16H72.5058V26.296ZM114.256 14.84V23.928H128.912V32.376H114.256V42.232H130.832V51H103.312V6.072H130.832V14.84H114.256ZM170.257 6.072V14.84H158.353V51H147.409V14.84H135.505V6.072H170.257ZM186.693 14.84V23.928H201.349V32.376H186.693V42.232H203.269V51H175.749V6.072H203.269V14.84H186.693Z" fill="#FAFAFA"/>
<path d="M8.93481 161.384C8.93481 162.035 8.78548 162.632 8.48681 163.176C8.18815 163.709 7.72948 164.141 7.11081 164.472C6.49215 164.803 5.72415 164.968 4.80681 164.968H3.11081V169H0.374813V157.768H4.80681C5.70281 157.768 6.46015 157.923 7.07881 158.232C7.69748 158.541 8.16148 158.968 8.47081 159.512C8.78015 160.056 8.93481 160.68 8.93481 161.384ZM4.59881 162.792C5.12148 162.792 5.51081 162.669 5.76681 162.424C6.02281 162.179 6.15081 161.832 6.15081 161.384C6.15081 160.936 6.02281 160.589 5.76681 160.344C5.51081 160.099 5.12148 159.976 4.59881 159.976H3.11081V162.792H4.59881ZM9.81519 164.52C9.81519 163.603 9.98585 162.797 10.3272 162.104C10.6792 161.411 11.1539 160.877 11.7512 160.504C12.3485 160.131 13.0152 159.944 13.7512 159.944C14.3805 159.944 14.9299 160.072 15.3992 160.328C15.8792 160.584 16.2472 160.92 16.5032 161.336V160.072H19.2392V169H16.5032V167.736C16.2365 168.152 15.8632 168.488 15.3832 168.744C14.9139 169 14.3645 169.128 13.7352 169.128C13.0099 169.128 12.3485 168.941 11.7512 168.568C11.1539 168.184 10.6792 167.645 10.3272 166.952C9.98585 166.248 9.81519 165.437 9.81519 164.52ZM16.5032 164.536C16.5032 163.853 16.3112 163.315 15.9272 162.92C15.5539 162.525 15.0952 162.328 14.5512 162.328C14.0072 162.328 13.5432 162.525 13.1592 162.92C12.7859 163.304 12.5992 163.837 12.5992 164.52C12.5992 165.203 12.7859 165.747 13.1592 166.152C13.5432 166.547 14.0072 166.744 14.5512 166.744C15.0952 166.744 15.5539 166.547 15.9272 166.152C16.3112 165.757 16.5032 165.219 16.5032 164.536ZM23.9546 161.56C24.2746 161.069 24.6746 160.685 25.1546 160.408C25.6346 160.12 26.1679 159.976 26.7546 159.976V162.872H26.0026C25.3199 162.872 24.8079 163.021 24.4666 163.32C24.1252 163.608 23.9546 164.12 23.9546 164.856V169H21.2186V160.072H23.9546V161.56ZM27.5183 164.52C27.5183 163.603 27.689 162.797 28.0303 162.104C28.3823 161.411 28.857 160.877 29.4543 160.504C30.0516 160.131 30.7183 159.944 31.4543 159.944C32.0836 159.944 32.633 160.072 33.1023 160.328C33.5823 160.584 33.9503 160.92 34.2063 161.336V160.072H36.9423V169H34.2063V167.736C33.9396 168.152 33.5663 168.488 33.0863 168.744C32.617 169 32.0676 169.128 31.4383 169.128C30.713 169.128 30.0516 168.941 29.4543 168.568C28.857 168.184 28.3823 167.645 28.0303 166.952C27.689 166.248 27.5183 165.437 27.5183 164.52ZM34.2063 164.536C34.2063 163.853 34.0143 163.315 33.6303 162.92C33.257 162.525 32.7983 162.328 32.2543 162.328C31.7103 162.328 31.2463 162.525 30.8623 162.92C30.489 163.304 30.3023 163.837 30.3023 164.52C30.3023 165.203 30.489 165.747 30.8623 166.152C31.2463 166.547 31.7103 166.744 32.2543 166.744C32.7983 166.744 33.257 166.547 33.6303 166.152C34.0143 165.757 34.2063 165.219 34.2063 164.536ZM41.8483 163.368C41.8483 162.259 42.0883 161.272 42.5683 160.408C43.0483 159.533 43.715 158.856 44.5683 158.376C45.4323 157.885 46.4083 157.64 47.4963 157.64C48.8296 157.64 49.971 157.992 50.9203 158.696C51.8696 159.4 52.5043 160.36 52.8243 161.576H49.8163C49.5923 161.107 49.2723 160.749 48.8563 160.504C48.451 160.259 47.987 160.136 47.4643 160.136C46.6216 160.136 45.939 160.429 45.4163 161.016C44.8936 161.603 44.6323 162.387 44.6323 163.368C44.6323 164.349 44.8936 165.133 45.4163 165.72C45.939 166.307 46.6216 166.6 47.4643 166.6C47.987 166.6 48.451 166.477 48.8563 166.232C49.2723 165.987 49.5923 165.629 49.8163 165.16H52.8243C52.5043 166.376 51.8696 167.336 50.9203 168.04C49.971 168.733 48.8296 169.08 47.4963 169.08C46.4083 169.08 45.4323 168.84 44.5683 168.36C43.715 167.869 43.0483 167.192 42.5683 166.328C42.0883 165.464 41.8483 164.477 41.8483 163.368ZM58.5638 169.128C57.6891 169.128 56.8998 168.941 56.1958 168.568C55.5025 168.195 54.9531 167.661 54.5478 166.968C54.1531 166.275 53.9558 165.464 53.9558 164.536C53.9558 163.619 54.1585 162.813 54.5638 162.12C54.9691 161.416 55.5238 160.877 56.2278 160.504C56.9318 160.131 57.7211 159.944 58.5958 159.944C59.4705 159.944 60.2598 160.131 60.9638 160.504C61.6678 160.877 62.2225 161.416 62.6278 162.12C63.0331 162.813 63.2358 163.619 63.2358 164.536C63.2358 165.453 63.0278 166.264 62.6118 166.968C62.2065 167.661 61.6465 168.195 60.9318 168.568C60.2278 168.941 59.4385 169.128 58.5638 169.128ZM58.5638 166.76C59.0865 166.76 59.5291 166.568 59.8918 166.184C60.2651 165.8 60.4518 165.251 60.4518 164.536C60.4518 163.821 60.2705 163.272 59.9078 162.888C59.5558 162.504 59.1185 162.312 58.5958 162.312C58.0625 162.312 57.6198 162.504 57.2678 162.888C56.9158 163.261 56.7398 163.811 56.7398 164.536C56.7398 165.251 56.9105 165.8 57.2518 166.184C57.6038 166.568 58.0411 166.76 58.5638 166.76ZM76.0793 159.976C77.1886 159.976 78.0686 160.312 78.7193 160.984C79.3806 161.656 79.7113 162.589 79.7113 163.784V169H76.9913V164.152C76.9913 163.576 76.8366 163.133 76.5273 162.824C76.2286 162.504 75.8126 162.344 75.2793 162.344C74.746 162.344 74.3246 162.504 74.0153 162.824C73.7166 163.133 73.5673 163.576 73.5673 164.152V169H70.8473V164.152C70.8473 163.576 70.6926 163.133 70.3833 162.824C70.0846 162.504 69.6686 162.344 69.1353 162.344C68.602 162.344 68.1806 162.504 67.8713 162.824C67.5726 163.133 67.4233 163.576 67.4233 164.152V169H64.6873V160.072H67.4233V161.192C67.7006 160.819 68.0633 160.525 68.5113 160.312C68.9593 160.088 69.466 159.976 70.0313 159.976C70.7033 159.976 71.3006 160.12 71.8233 160.408C72.3566 160.696 72.7726 161.107 73.0713 161.64C73.3806 161.149 73.802 160.749 74.3353 160.44C74.8686 160.131 75.45 159.976 76.0793 159.976ZM84.3608 161.336C84.6275 160.92 84.9955 160.584 85.4648 160.328C85.9341 160.072 86.4835 159.944 87.1128 159.944C87.8488 159.944 88.5155 160.131 89.1128 160.504C89.7101 160.877 90.1795 161.411 90.5208 162.104C90.8728 162.797 91.0488 163.603 91.0488 164.52C91.0488 165.437 90.8728 166.248 90.5208 166.952C90.1795 167.645 89.7101 168.184 89.1128 168.568C88.5155 168.941 87.8488 169.128 87.1128 169.128C86.4941 169.128 85.9448 169 85.4648 168.744C84.9955 168.488 84.6275 168.157 84.3608 167.752V173.256H81.6248V160.072H84.3608V161.336ZM88.2648 164.52C88.2648 163.837 88.0728 163.304 87.6888 162.92C87.3155 162.525 86.8515 162.328 86.2968 162.328C85.7528 162.328 85.2888 162.525 84.9048 162.92C84.5315 163.315 84.3448 163.853 84.3448 164.536C84.3448 165.219 84.5315 165.757 84.9048 166.152C85.2888 166.547 85.7528 166.744 86.2968 166.744C86.8408 166.744 87.3048 166.547 87.6888 166.152C88.0728 165.747 88.2648 165.203 88.2648 164.52ZM95.2202 161.56C95.5402 161.069 95.9402 160.685 96.4202 160.408C96.9002 160.12 97.4335 159.976 98.0202 159.976V162.872H97.2682C96.5855 162.872 96.0735 163.021 95.7322 163.32C95.3909 163.608 95.2202 164.12 95.2202 164.856V169H92.4842V160.072H95.2202V161.56ZM98.7839 164.52C98.7839 163.603 98.9546 162.797 99.2959 162.104C99.6479 161.411 100.123 160.877 100.72 160.504C101.317 160.131 101.984 159.944 102.72 159.944C103.349 159.944 103.899 160.072 104.368 160.328C104.848 160.584 105.216 160.92 105.472 161.336V160.072H108.208V169H105.472V167.736C105.205 168.152 104.832 168.488 104.352 168.744C103.883 169 103.333 169.128 102.704 169.128C101.979 169.128 101.317 168.941 100.72 168.568C100.123 168.184 99.6479 167.645 99.2959 166.952C98.9546 166.248 98.7839 165.437 98.7839 164.52ZM105.472 164.536C105.472 163.853 105.28 163.315 104.896 162.92C104.523 162.525 104.064 162.328 103.52 162.328C102.976 162.328 102.512 162.525 102.128 162.92C101.755 163.304 101.568 163.837 101.568 164.52C101.568 165.203 101.755 165.747 102.128 166.152C102.512 166.547 102.976 166.744 103.52 166.744C104.064 166.744 104.523 166.547 104.896 166.152C105.28 165.757 105.472 165.219 105.472 164.536ZM113.819 169.128C113.041 169.128 112.347 168.995 111.739 168.728C111.131 168.461 110.651 168.099 110.299 167.64C109.947 167.171 109.75 166.648 109.707 166.072H112.411C112.443 166.381 112.587 166.632 112.843 166.824C113.099 167.016 113.414 167.112 113.787 167.112C114.129 167.112 114.39 167.048 114.571 166.92C114.763 166.781 114.859 166.605 114.859 166.392C114.859 166.136 114.726 165.949 114.459 165.832C114.193 165.704 113.761 165.565 113.163 165.416C112.523 165.267 111.99 165.112 111.563 164.952C111.137 164.781 110.769 164.52 110.459 164.168C110.15 163.805 109.995 163.32 109.995 162.712C109.995 162.2 110.134 161.736 110.411 161.32C110.699 160.893 111.115 160.557 111.659 160.312C112.214 160.067 112.87 159.944 113.627 159.944C114.747 159.944 115.627 160.221 116.267 160.776C116.918 161.331 117.291 162.067 117.387 162.984H114.859C114.817 162.675 114.678 162.429 114.443 162.248C114.219 162.067 113.921 161.976 113.547 161.976C113.227 161.976 112.982 162.04 112.811 162.168C112.641 162.285 112.555 162.451 112.555 162.664C112.555 162.92 112.689 163.112 112.955 163.24C113.233 163.368 113.659 163.496 114.235 163.624C114.897 163.795 115.435 163.965 115.851 164.136C116.267 164.296 116.63 164.563 116.939 164.936C117.259 165.299 117.425 165.789 117.435 166.408C117.435 166.931 117.286 167.4 116.987 167.816C116.699 168.221 116.278 168.541 115.723 168.776C115.179 169.011 114.545 169.128 113.819 169.128ZM129.492 167.016H125.3L124.628 169H121.764L125.828 157.768H128.996L133.06 169H130.164L129.492 167.016ZM128.788 164.904L127.396 160.792L126.02 164.904H128.788ZM133.753 164.536C133.753 163.608 133.939 162.797 134.313 162.104C134.697 161.411 135.225 160.877 135.897 160.504C136.579 160.131 137.358 159.944 138.233 159.944C139.353 159.944 140.286 160.237 141.033 160.824C141.79 161.411 142.286 162.237 142.521 163.304H139.609C139.363 162.621 138.889 162.28 138.185 162.28C137.683 162.28 137.283 162.477 136.985 162.872C136.686 163.256 136.537 163.811 136.537 164.536C136.537 165.261 136.686 165.821 136.985 166.216C137.283 166.6 137.683 166.792 138.185 166.792C138.889 166.792 139.363 166.451 139.609 165.768H142.521C142.286 166.813 141.79 167.635 141.033 168.232C140.275 168.829 139.342 169.128 138.233 169.128C137.358 169.128 136.579 168.941 135.897 168.568C135.225 168.195 134.697 167.661 134.313 166.968C133.939 166.275 133.753 165.464 133.753 164.536ZM145.36 159.144C144.88 159.144 144.486 159.005 144.176 158.728C143.878 158.44 143.728 158.088 143.728 157.672C143.728 157.245 143.878 156.893 144.176 156.616C144.486 156.328 144.88 156.184 145.36 156.184C145.83 156.184 146.214 156.328 146.512 156.616C146.822 156.893 146.976 157.245 146.976 157.672C146.976 158.088 146.822 158.44 146.512 158.728C146.214 159.005 145.83 159.144 145.36 159.144ZM146.72 160.072V169H143.984V160.072H146.72ZM160.095 159.976C161.204 159.976 162.084 160.312 162.735 160.984C163.396 161.656 163.727 162.589 163.727 163.784V169H161.007V164.152C161.007 163.576 160.852 163.133 160.543 162.824C160.244 162.504 159.828 162.344 159.295 162.344C158.762 162.344 158.34 162.504 158.031 162.824C157.732 163.133 157.583 163.576 157.583 164.152V169H154.863V164.152C154.863 163.576 154.708 163.133 154.399 162.824C154.1 162.504 153.684 162.344 153.151 162.344C152.618 162.344 152.196 162.504 151.887 162.824C151.588 163.133 151.439 163.576 151.439 164.152V169H148.703V160.072H151.439V161.192C151.716 160.819 152.079 160.525 152.527 160.312C152.975 160.088 153.482 159.976 154.047 159.976C154.719 159.976 155.316 160.12 155.839 160.408C156.372 160.696 156.788 161.107 157.087 161.64C157.396 161.149 157.818 160.749 158.351 160.44C158.884 160.131 159.466 159.976 160.095 159.976ZM165.096 164.52C165.096 163.603 165.267 162.797 165.608 162.104C165.96 161.411 166.435 160.877 167.032 160.504C167.63 160.131 168.296 159.944 169.032 159.944C169.662 159.944 170.211 160.072 170.68 160.328C171.16 160.584 171.528 160.92 171.784 161.336V160.072H174.52V169H171.784V167.736C171.518 168.152 171.144 168.488 170.664 168.744C170.195 169 169.646 169.128 169.016 169.128C168.291 169.128 167.63 168.941 167.032 168.568C166.435 168.184 165.96 167.645 165.608 166.952C165.267 166.248 165.096 165.437 165.096 164.52ZM171.784 164.536C171.784 163.853 171.592 163.315 171.208 162.92C170.835 162.525 170.376 162.328 169.832 162.328C169.288 162.328 168.824 162.525 168.44 162.92C168.067 163.304 167.88 163.837 167.88 164.52C167.88 165.203 168.067 165.747 168.44 166.152C168.824 166.547 169.288 166.744 169.832 166.744C170.376 166.744 170.835 166.547 171.208 166.152C171.592 165.757 171.784 165.219 171.784 164.536ZM184.098 157.768C185.282 157.768 186.317 158.003 187.202 158.472C188.088 158.941 188.77 159.603 189.25 160.456C189.741 161.299 189.986 162.275 189.986 163.384C189.986 164.483 189.741 165.459 189.25 166.312C188.77 167.165 188.082 167.827 187.186 168.296C186.301 168.765 185.272 169 184.098 169H179.89V157.768H184.098ZM183.922 166.632C184.957 166.632 185.762 166.349 186.338 165.784C186.914 165.219 187.202 164.419 187.202 163.384C187.202 162.349 186.914 161.544 186.338 160.968C185.762 160.392 184.957 160.104 183.922 160.104H182.626V166.632H183.922ZM199.931 164.392C199.931 164.648 199.915 164.915 199.883 165.192H193.691C193.734 165.747 193.91 166.173 194.219 166.472C194.539 166.76 194.929 166.904 195.387 166.904C196.07 166.904 196.545 166.616 196.811 166.04H199.723C199.574 166.627 199.302 167.155 198.907 167.624C198.523 168.093 198.038 168.461 197.451 168.728C196.865 168.995 196.209 169.128 195.483 169.128C194.609 169.128 193.83 168.941 193.147 168.568C192.465 168.195 191.931 167.661 191.547 166.968C191.163 166.275 190.971 165.464 190.971 164.536C190.971 163.608 191.158 162.797 191.531 162.104C191.915 161.411 192.449 160.877 193.131 160.504C193.814 160.131 194.598 159.944 195.483 159.944C196.347 159.944 197.115 160.125 197.787 160.488C198.459 160.851 198.982 161.368 199.355 162.04C199.739 162.712 199.931 163.496 199.931 164.392ZM197.131 163.672C197.131 163.203 196.971 162.829 196.651 162.552C196.331 162.275 195.931 162.136 195.451 162.136C194.993 162.136 194.603 162.269 194.283 162.536C193.974 162.803 193.782 163.181 193.707 163.672H197.131ZM210.493 169L208.157 164.76H207.501V169H204.765V157.768H209.357C210.243 157.768 210.995 157.923 211.613 158.232C212.243 158.541 212.712 158.968 213.021 159.512C213.331 160.045 213.485 160.643 213.485 161.304C213.485 162.051 213.272 162.717 212.845 163.304C212.429 163.891 211.811 164.307 210.989 164.552L213.581 169H210.493ZM207.501 162.824H209.197C209.699 162.824 210.072 162.701 210.317 162.456C210.573 162.211 210.701 161.864 210.701 161.416C210.701 160.989 210.573 160.653 210.317 160.408C210.072 160.163 209.699 160.04 209.197 160.04H207.501V162.824ZM223.699 165.736C223.699 166.323 223.544 166.867 223.235 167.368C222.936 167.859 222.488 168.264 221.891 168.584C221.304 168.893 220.606 169.064 219.795 169.096V170.392H218.771V169.08C217.64 168.984 216.728 168.648 216.035 168.072C215.342 167.485 214.974 166.691 214.931 165.688H217.843C217.907 166.328 218.216 166.739 218.771 166.92V164.392C217.939 164.179 217.272 163.971 216.771 163.768C216.28 163.565 215.848 163.24 215.475 162.792C215.102 162.344 214.915 161.731 214.915 160.952C214.915 159.981 215.272 159.203 215.987 158.616C216.712 158.029 217.64 157.699 218.771 157.624V156.328H219.795V157.624C220.915 157.709 221.8 158.035 222.451 158.6C223.102 159.165 223.464 159.949 223.539 160.952H220.611C220.547 160.376 220.275 160.003 219.795 159.832V162.312C220.68 162.557 221.363 162.776 221.843 162.968C222.323 163.16 222.75 163.48 223.123 163.928C223.507 164.365 223.699 164.968 223.699 165.736ZM217.811 160.824C217.811 161.091 217.891 161.315 218.051 161.496C218.222 161.677 218.462 161.837 218.771 161.976V159.752C218.472 159.805 218.238 159.923 218.067 160.104C217.896 160.275 217.811 160.515 217.811 160.824ZM219.795 166.968C220.115 166.915 220.366 166.787 220.547 166.584C220.739 166.381 220.835 166.131 220.835 165.832C220.835 165.555 220.744 165.331 220.563 165.16C220.392 164.979 220.136 164.824 219.795 164.696V166.968ZM227.014 169.128C226.534 169.128 226.14 168.989 225.83 168.712C225.532 168.424 225.382 168.072 225.382 167.656C225.382 167.229 225.532 166.872 225.83 166.584C226.14 166.296 226.534 166.152 227.014 166.152C227.484 166.152 227.868 166.296 228.166 166.584C228.476 166.872 228.63 167.229 228.63 167.656C228.63 168.072 228.476 168.424 228.166 168.712C227.868 168.989 227.484 169.128 227.014 169.128ZM227.014 162.616C226.534 162.616 226.14 162.477 225.83 162.2C225.532 161.912 225.382 161.56 225.382 161.144C225.382 160.717 225.532 160.36 225.83 160.072C226.14 159.784 226.534 159.64 227.014 159.64C227.484 159.64 227.868 159.784 228.166 160.072C228.476 160.36 228.63 160.717 228.63 161.144C228.63 161.56 228.476 161.912 228.166 162.2C227.868 162.477 227.484 162.616 227.014 162.616ZM229.721 159.864V157.32H234.153V169H231.305V159.864H229.721ZM244.249 159.704H239.257V161.912C239.47 161.677 239.769 161.485 240.153 161.336C240.537 161.187 240.953 161.112 241.401 161.112C242.201 161.112 242.862 161.293 243.385 161.656C243.918 162.019 244.307 162.488 244.553 163.064C244.798 163.64 244.921 164.264 244.921 164.936C244.921 166.184 244.569 167.176 243.865 167.912C243.161 168.637 242.169 169 240.889 169C240.035 169 239.294 168.856 238.665 168.568C238.035 168.269 237.55 167.859 237.209 167.336C236.867 166.813 236.681 166.211 236.649 165.528H239.321C239.385 165.859 239.539 166.136 239.785 166.36C240.03 166.573 240.366 166.68 240.793 166.68C241.294 166.68 241.667 166.52 241.913 166.2C242.158 165.88 242.281 165.453 242.281 164.92C242.281 164.397 242.153 163.997 241.897 163.72C241.641 163.443 241.267 163.304 240.777 163.304C240.414 163.304 240.115 163.395 239.881 163.576C239.646 163.747 239.491 163.976 239.417 164.264H236.777V157.304H244.249V159.704ZM246.431 163C246.431 161.165 246.783 159.72 247.487 158.664C248.202 157.608 249.348 157.08 250.927 157.08C252.506 157.08 253.647 157.608 254.351 158.664C255.066 159.72 255.423 161.165 255.423 163C255.423 164.856 255.066 166.312 254.351 167.368C253.647 168.424 252.506 168.952 250.927 168.952C249.348 168.952 248.202 168.424 247.487 167.368C246.783 166.312 246.431 164.856 246.431 163ZM252.735 163C252.735 161.923 252.618 161.096 252.383 160.52C252.148 159.933 251.663 159.64 250.927 159.64C250.191 159.64 249.706 159.933 249.471 160.52C249.236 161.096 249.119 161.923 249.119 163C249.119 163.725 249.162 164.328 249.247 164.808C249.332 165.277 249.503 165.661 249.759 165.96C250.026 166.248 250.415 166.392 250.927 166.392C251.439 166.392 251.823 166.248 252.079 165.96C252.346 165.661 252.522 165.277 252.607 164.808C252.692 164.328 252.735 163.725 252.735 163ZM260.084 166.472L258.308 171.064H256.564L257.492 166.472H260.084ZM261.462 163C261.462 161.165 261.814 159.72 262.518 158.664C263.233 157.608 264.38 157.08 265.958 157.08C267.537 157.08 268.678 157.608 269.382 158.664C270.097 159.72 270.454 161.165 270.454 163C270.454 164.856 270.097 166.312 269.382 167.368C268.678 168.424 267.537 168.952 265.958 168.952C264.38 168.952 263.233 168.424 262.518 167.368C261.814 166.312 261.462 164.856 261.462 163ZM267.766 163C267.766 161.923 267.649 161.096 267.414 160.52C267.18 159.933 266.694 159.64 265.958 159.64C265.222 159.64 264.737 159.933 264.502 160.52C264.268 161.096 264.15 161.923 264.15 163C264.15 163.725 264.193 164.328 264.278 164.808C264.364 165.277 264.534 165.661 264.79 165.96C265.057 166.248 265.446 166.392 265.958 166.392C266.47 166.392 266.854 166.248 267.11 165.96C267.377 165.661 267.553 165.277 267.638 164.808C267.724 164.328 267.766 163.725 267.766 163ZM271.9 163C271.9 161.165 272.252 159.72 272.956 158.664C273.67 157.608 274.817 157.08 276.396 157.08C277.974 157.08 279.116 157.608 279.82 158.664C280.534 159.72 280.892 161.165 280.892 163C280.892 164.856 280.534 166.312 279.82 167.368C279.116 168.424 277.974 168.952 276.396 168.952C274.817 168.952 273.67 168.424 272.956 167.368C272.252 166.312 271.9 164.856 271.9 163ZM278.204 163C278.204 161.923 278.086 161.096 277.852 160.52C277.617 159.933 277.132 159.64 276.396 159.64C275.66 159.64 275.174 159.933 274.94 160.52C274.705 161.096 274.588 161.923 274.588 163C274.588 163.725 274.63 164.328 274.716 164.808C274.801 165.277 274.972 165.661 275.228 165.96C275.494 166.248 275.884 166.392 276.396 166.392C276.908 166.392 277.292 166.248 277.548 165.96C277.814 165.661 277.99 165.277 278.076 164.808C278.161 164.328 278.204 163.725 278.204 163Z" fill="#FAFAFA"/>
<path d="M43.917 90.28C43.1063 88.7867 41.933 87.656 40.397 86.888C38.9037 86.0773 37.133 85.672 35.085 85.672C31.5437 85.672 28.7063 86.8453 26.573 89.192C24.4397 91.496 23.373 94.5893 23.373 98.472C23.373 102.611 24.4823 105.853 26.701 108.2C28.9623 110.504 32.0557 111.656 35.981 111.656C38.669 111.656 40.9303 110.973 42.765 109.608C44.6423 108.243 46.0077 106.28 46.861 103.72H32.973V95.656H56.781V105.832C55.9703 108.563 54.5837 111.101 52.621 113.448C50.701 115.795 48.2477 117.693 45.261 119.144C42.2743 120.595 38.9037 121.32 35.149 121.32C30.7117 121.32 26.7437 120.36 23.245 118.44C19.789 116.477 17.0797 113.768 15.117 110.312C13.197 106.856 12.237 102.909 12.237 98.472C12.237 94.0347 13.197 90.088 15.117 86.632C17.0797 83.1333 19.789 80.424 23.245 78.504C26.701 76.5413 30.6477 75.56 35.085 75.56C40.461 75.56 44.9837 76.8613 48.653 79.464C52.365 82.0667 54.8183 85.672 56.013 90.28H43.917ZM85.755 121L76.411 104.04H73.787V121H62.843V76.072H81.211C84.7523 76.072 87.7603 76.6907 90.235 77.928C92.7523 79.1653 94.6297 80.872 95.867 83.048C97.1043 85.1813 97.723 87.5707 97.723 90.216C97.723 93.2027 96.8697 95.8693 95.163 98.216C93.499 100.563 91.0243 102.227 87.739 103.208L98.107 121H85.755ZM73.787 96.296H80.571C82.5763 96.296 84.0697 95.8053 85.051 94.824C86.075 93.8427 86.587 92.456 86.587 90.664C86.587 88.9573 86.075 87.6133 85.051 86.632C84.0697 85.6507 82.5763 85.16 80.571 85.16H73.787V96.296ZM132.561 113.064H115.793L113.105 121H101.649L117.905 76.072H130.577L146.833 121H135.249L132.561 113.064ZM129.745 104.616L124.177 88.168L118.673 104.616H129.745ZM131.665 67.048L116.241 73.512V65.96L131.665 58.536V67.048ZM184.101 76.072V84.84H172.197V121H161.253V84.84H149.349V76.072H184.101ZM200.537 76.072V121H189.593V76.072H200.537ZM224.724 121.448C221.439 121.448 218.495 120.915 215.892 119.848C213.289 118.781 211.199 117.203 209.62 115.112C208.084 113.021 207.273 110.504 207.188 107.56H218.836C219.007 109.224 219.583 110.504 220.564 111.4C221.545 112.253 222.825 112.68 224.404 112.68C226.025 112.68 227.305 112.317 228.244 111.592C229.183 110.824 229.652 109.779 229.652 108.456C229.652 107.347 229.268 106.429 228.5 105.704C227.775 104.979 226.857 104.381 225.748 103.912C224.681 103.443 223.145 102.909 221.14 102.312C218.239 101.416 215.871 100.52 214.036 99.624C212.201 98.728 210.623 97.4053 209.3 95.656C207.977 93.9067 207.316 91.624 207.316 88.808C207.316 84.6267 208.831 81.3627 211.86 79.016C214.889 76.6267 218.836 75.432 223.7 75.432C228.649 75.432 232.639 76.6267 235.668 79.016C238.697 81.3627 240.319 84.648 240.532 88.872H228.692C228.607 87.4213 228.073 86.2907 227.092 85.48C226.111 84.6267 224.852 84.2 223.316 84.2C221.993 84.2 220.927 84.5627 220.116 85.288C219.305 85.9707 218.9 86.9733 218.9 88.296C218.9 89.7467 219.583 90.8773 220.948 91.688C222.313 92.4987 224.447 93.3733 227.348 94.312C230.249 95.2933 232.596 96.232 234.388 97.128C236.223 98.024 237.801 99.3253 239.124 101.032C240.447 102.739 241.108 104.936 241.108 107.624C241.108 110.184 240.447 112.509 239.124 114.6C237.844 116.691 235.967 118.355 233.492 119.592C231.017 120.829 228.095 121.448 224.724 121.448Z" fill="#FAFAFA"/>
</svg>
