<svg width="60" height="42" viewBox="0 0 60 42" fill="none" xmlns="http://www.w3.org/2000/svg">
<path d="M45.3151 26.6722C41.1448 26.6722 37.7521 30.0649 37.7521 34.2353C37.7521 38.4056 41.1448 41.7983 45.3151 41.7983C49.4862 41.7983 52.8782 38.4056 52.8782 34.2353C52.8782 30.0649 49.4855 26.6722 45.3151 26.6722ZM45.3151 38.0168C43.2297 38.0168 41.5336 36.3208 41.5336 34.2353C41.5336 32.1498 43.2297 30.4538 45.3151 30.4538C47.4006 30.4538 49.0966 32.1498 49.0966 34.2353C49.0966 36.3209 47.4006 38.0168 45.3151 38.0168Z" fill="#FAFAFA"/>
<path d="M19.4748 26.6722C15.3045 26.6722 11.9118 30.0649 11.9118 34.2353C11.9118 38.4056 15.3045 41.7983 19.4748 41.7983C23.6452 41.7983 27.0379 38.4056 27.0379 34.2353C27.0379 30.0649 23.6452 26.6722 19.4748 26.6722ZM19.4748 38.0168C17.3894 38.0168 15.6933 36.3208 15.6933 34.2353C15.6933 32.1498 17.3894 30.4538 19.4748 30.4538C21.5597 30.4538 23.2563 32.1498 23.2563 34.2353C23.2563 36.3209 21.5603 38.0168 19.4748 38.0168Z" fill="#FAFAFA"/>
<path d="M50.4082 5.02443C50.0868 4.38599 49.4332 3.98322 48.7185 3.98322H38.7605V7.76474H47.5525L52.701 18.0051L56.0804 16.3058L50.4082 5.02443Z" fill="#FAFAFA"/>
<path d="M39.6429 32.4076H25.3362V36.1891H39.6429V32.4076Z" fill="#FAFAFA"/>
<path d="M13.8025 32.4076H7.24794C6.20357 32.4076 5.35724 33.2541 5.35724 34.2983C5.35724 35.3427 6.20368 36.189 7.24794 36.189H13.8026C14.847 36.189 15.6933 35.3426 15.6933 34.2983C15.6933 33.254 14.8468 32.4076 13.8025 32.4076Z" fill="#FAFAFA"/>
<path d="M59.603 20.8487L55.8839 16.0588C55.5266 15.5974 54.9751 15.3277 54.3908 15.3277H40.6513V2.09239C40.6513 1.04802 39.8049 0.201691 38.7606 0.201691H7.24794C6.20357 0.201691 5.35724 1.04814 5.35724 2.09239C5.35724 3.13665 6.20368 3.9831 7.24794 3.9831H36.8698V17.2184C36.8698 18.2627 37.7162 19.1091 38.7605 19.1091H53.4649L56.2185 22.6561V32.4074H50.9874C49.943 32.4074 49.0967 33.2538 49.0967 34.2981C49.0967 35.3425 49.9431 36.1888 50.9874 36.1888H58.1092C59.1536 36.1888 59.9999 35.3424 60 34.2981V22.0084C60 21.5887 59.8601 21.1803 59.603 20.8487Z" fill="#FAFAFA"/>
<path d="M13.6765 22.8278H4.97893C3.93455 22.8278 3.08823 23.6742 3.08823 24.7185C3.08823 25.7628 3.93467 26.6092 4.97893 26.6092H13.6764C14.7207 26.6092 15.5671 25.7627 15.5671 24.7185C15.5672 23.6742 14.7207 22.8278 13.6765 22.8278Z" fill="#FAFAFA"/>
<path d="M18.0252 15.3907H1.8907C0.846445 15.3907 0 16.2372 0 17.2815C0 18.3259 0.846445 19.1722 1.8907 19.1722H18.0252C19.0696 19.1722 19.9159 18.3258 19.9159 17.2815C19.9159 16.2373 19.0696 15.3907 18.0252 15.3907Z" fill="#FAFAFA"/>
<path d="M21.1134 7.95377H4.97893C3.93455 7.95377 3.08823 8.80021 3.08823 9.84447C3.08823 10.8888 3.93467 11.7352 4.97893 11.7352H21.1134C22.1578 11.7352 23.0041 10.8887 23.0041 9.84447C23.0042 8.80021 22.1578 7.95377 21.1134 7.95377Z" fill="#FAFAFA"/>
</svg>
