<svg width="35" height="31" viewBox="0 0 35 31" fill="none" xmlns="http://www.w3.org/2000/svg">
<path d="M11.2766 20.6272H11.2782C11.2796 20.6272 11.2809 20.627 11.2822 20.627H29.873C30.3307 20.627 30.7331 20.3233 30.8589 19.8833L34.9605 5.52781C35.0489 5.21832 34.9869 4.8856 34.7933 4.62872C34.5995 4.37184 34.2964 4.2207 33.9746 4.2207H8.91182L8.17882 0.922096C8.07442 0.452927 7.65839 0.119141 7.17773 0.119141H1.02539C0.459022 0.119141 0 0.578163 0 1.14453C0 1.7109 0.459022 2.16992 1.02539 2.16992H6.35529C6.48506 2.75445 9.86298 17.9553 10.0574 18.8298C8.96763 19.3036 8.20312 20.3901 8.20312 21.6523C8.20312 23.3485 9.58313 24.7285 11.2793 24.7285H29.873C30.4394 24.7285 30.8984 24.2695 30.8984 23.7031C30.8984 23.1368 30.4394 22.6777 29.873 22.6777H11.2793C10.714 22.6777 10.2539 22.2176 10.2539 21.6523C10.2539 21.0878 10.7124 20.6286 11.2766 20.6272ZM32.6152 6.27148L29.0995 18.5762H12.1017L9.36737 6.27148H32.6152Z" fill="#FAFAFA"/>
<path d="M10.2539 27.8047C10.2539 29.5009 11.6339 30.8809 13.3301 30.8809C15.0262 30.8809 16.4062 29.5009 16.4062 27.8047C16.4062 26.1085 15.0262 24.7285 13.3301 24.7285C11.6339 24.7285 10.2539 26.1085 10.2539 27.8047ZM13.3301 26.7793C13.8954 26.7793 14.3555 27.2394 14.3555 27.8047C14.3555 28.37 13.8954 28.8301 13.3301 28.8301C12.7648 28.8301 12.3047 28.37 12.3047 27.8047C12.3047 27.2394 12.7648 26.7793 13.3301 26.7793Z" fill="#FAFAFA"/>
<path d="M24.7461 27.8047C24.7461 29.5009 26.1261 30.8809 27.8223 30.8809C29.5184 30.8809 30.8984 29.5009 30.8984 27.8047C30.8984 26.1085 29.5184 24.7285 27.8223 24.7285C26.1261 24.7285 24.7461 26.1085 24.7461 27.8047ZM27.8223 26.7793C28.3876 26.7793 28.8477 27.2394 28.8477 27.8047C28.8477 28.37 28.3876 28.8301 27.8223 28.8301C27.257 28.8301 26.7969 28.37 26.7969 27.8047C26.7969 27.2394 27.257 26.7793 27.8223 26.7793Z" fill="#FAFAFA"/>
</svg>
