<svg width="120" height="120" viewBox="0 0 120 120" fill="none" xmlns="http://www.w3.org/2000/svg">
<g clip-path="url(#clip0)">
<path d="M102.426 17.5735C91.0941 6.24115 76.0263 0 60 0C43.9728 0 28.9059 6.24115 17.5735 17.5735C6.24115 28.9059 0 43.9728 0 60C0 76.0263 6.24115 91.0941 17.5735 102.426C28.9059 113.759 43.9728 120 60 120C76.0263 120 91.0941 113.759 102.426 102.426C113.759 91.0941 120 76.0263 120 60C120 43.9728 113.759 28.9059 102.426 17.5735V17.5735ZM30.0797 103.684C32.5891 89.2355 45.1099 78.5779 60 78.5779C74.8911 78.5779 87.4109 89.2355 89.9203 103.684C81.4014 109.537 71.0944 112.969 60 112.969C48.9056 112.969 38.5986 109.537 30.0797 103.684ZM40.9222 52.4689C40.9222 41.9485 49.4806 33.3911 60 33.3911C70.5194 33.3911 79.0778 41.9495 79.0778 52.4689C79.0778 62.9883 70.5194 71.5466 60 71.5466C49.4806 71.5466 40.9222 62.9883 40.9222 52.4689V52.4689ZM96.0104 98.8074C94.118 92.081 90.3598 85.9781 85.0919 81.2109C81.86 78.2858 78.1815 75.9778 74.2264 74.3509C81.3748 69.6881 86.1099 61.6214 86.1099 52.4689C86.1099 38.0722 74.3967 26.3599 60 26.3599C45.6033 26.3599 33.891 38.0722 33.891 52.4689C33.891 61.6214 38.6261 69.6881 45.7736 74.3509C41.8195 75.9778 38.14 78.2849 34.9081 81.21C29.6411 85.9772 25.882 92.0801 23.9896 98.8065C13.5663 89.1266 7.03125 75.3131 7.03125 60C7.03125 30.7928 30.7928 7.03125 60 7.03125C89.2072 7.03125 112.969 30.7928 112.969 60C112.969 75.314 106.434 89.1275 96.0104 98.8074V98.8074Z" fill="#FAFAFA"/>
</g>
<defs>
<clipPath id="clip0">
<rect width="120" height="120" fill="white"/>
</clipPath>
</defs>
</svg>
