<svg width="65" height="65" viewBox="0 0 65 65" fill="none" xmlns="http://www.w3.org/2000/svg">
<circle cx="32.5" cy="32.5" r="31" stroke="#FAFAFA" stroke-width="3"/>
<path d="M46.376 50L41.816 45.344C40.184 47.136 38.44 48.464 36.584 49.328C34.728 50.16 32.632 50.576 30.296 50.576C28.056 50.576 26.072 50.16 24.344 49.328C22.616 48.464 21.272 47.264 20.312 45.728C19.352 44.192 18.872 42.416 18.872 40.4C18.872 38.032 19.544 35.968 20.888 34.208C22.232 32.448 24.2 31.072 26.792 30.08C25.672 28.832 24.856 27.68 24.344 26.624C23.832 25.536 23.576 24.368 23.576 23.12C23.576 20.976 24.344 19.248 25.88 17.936C27.416 16.592 29.464 15.92 32.024 15.92C34.424 15.92 36.376 16.608 37.88 17.984C39.384 19.36 40.088 21.152 39.992 23.36H36.632C36.664 21.92 36.216 20.784 35.288 19.952C34.392 19.12 33.256 18.704 31.88 18.704C30.408 18.704 29.208 19.12 28.28 19.952C27.384 20.752 26.936 21.792 26.936 23.072C26.936 24.096 27.208 25.088 27.752 26.048C28.328 27.008 29.224 28.144 30.44 29.456L41.48 40.64C41.928 40.032 42.536 39.072 43.304 37.76L46.376 32.624H49.976L46.328 38.912C45.464 40.416 44.6 41.76 43.736 42.944L50.744 50H46.376ZM30.296 47.648C32.184 47.648 33.864 47.28 35.336 46.544C36.84 45.808 38.264 44.656 39.608 43.088L28.904 32.24C24.456 33.872 22.232 36.56 22.232 40.304C22.232 41.712 22.568 42.976 23.24 44.096C23.944 45.184 24.904 46.048 26.12 46.688C27.336 47.328 28.728 47.648 30.296 47.648Z" fill="#FAFAFA"/>
</svg>
