<svg width="299" height="35" viewBox="0 0 299 35" fill="none" xmlns="http://www.w3.org/2000/svg">
<path d="M25.552 19.552C25.552 20.704 25.52 21.584 25.456 22.192H3.712C3.808 24.176 4.288 25.872 5.152 27.28C6.016 28.688 7.152 29.76 8.56 30.496C9.968 31.2 11.504 31.552 13.168 31.552C15.344 31.552 17.168 31.024 18.64 29.968C20.144 28.912 21.136 27.488 21.616 25.696H25.168C24.528 28.256 23.152 30.352 21.04 31.984C18.96 33.584 16.336 34.384 13.168 34.384C10.704 34.384 8.496 33.84 6.544 32.752C4.592 31.632 3.056 30.064 1.936 28.048C0.848 26 0.304 23.616 0.304 20.896C0.304 18.176 0.848 15.792 1.936 13.744C3.024 11.696 4.544 10.128 6.496 9.04C8.448 7.952 10.672 7.408 13.168 7.408C15.664 7.408 17.84 7.952 19.696 9.04C21.584 10.128 23.024 11.6 24.016 13.456C25.04 15.28 25.552 17.312 25.552 19.552ZM22.144 19.456C22.176 17.504 21.776 15.84 20.944 14.464C20.144 13.088 19.04 12.048 17.632 11.344C16.224 10.64 14.688 10.288 13.024 10.288C10.528 10.288 8.4 11.088 6.64 12.688C4.88 14.288 3.904 16.544 3.712 19.456H22.144ZM30.1634 17.2C30.1634 13.904 30.8834 10.96 32.3234 8.368C33.7634 5.744 35.7314 3.712 38.2274 2.272C40.7234 0.799999 43.5074 0.0639992 46.5794 0.0639992C50.3234 0.0639992 53.5234 0.959999 56.1794 2.752C58.8674 4.512 60.8194 7.008 62.0354 10.24H58.0994C57.1394 7.968 55.6674 6.192 53.6834 4.912C51.7314 3.632 49.3634 2.992 46.5794 2.992C44.1154 2.992 41.8914 3.568 39.9074 4.72C37.9554 5.872 36.4194 7.536 35.2994 9.712C34.1794 11.856 33.6194 14.352 33.6194 17.2C33.6194 20.048 34.1794 22.544 35.2994 24.688C36.4194 26.832 37.9554 28.48 39.9074 29.632C41.8914 30.784 44.1154 31.36 46.5794 31.36C49.3634 31.36 51.7314 30.736 53.6834 29.488C55.6674 28.208 57.1394 26.448 58.0994 24.208H62.0354C60.8194 27.408 58.8674 29.888 56.1794 31.648C53.4914 33.408 50.2914 34.288 46.5794 34.288C43.5074 34.288 40.7234 33.568 38.2274 32.128C35.7314 30.656 33.7634 28.624 32.3234 26.032C30.8834 23.44 30.1634 20.496 30.1634 17.2ZM80.2026 34.384C77.7386 34.384 75.5146 33.84 73.5306 32.752C71.5786 31.632 70.0266 30.064 68.8746 28.048C67.7546 26 67.1946 23.616 67.1946 20.896C67.1946 18.176 67.7706 15.808 68.9226 13.792C70.0746 11.744 71.6426 10.176 73.6266 9.088C75.6106 7.968 77.8346 7.408 80.2986 7.408C82.7626 7.408 84.9866 7.968 86.9706 9.088C88.9866 10.176 90.5546 11.744 91.6746 13.792C92.8266 15.808 93.4026 18.176 93.4026 20.896C93.4026 23.584 92.8266 25.952 91.6746 28C90.5226 30.048 88.9386 31.632 86.9226 32.752C84.9066 33.84 82.6666 34.384 80.2026 34.384ZM80.2026 31.456C81.9306 31.456 83.5306 31.072 85.0026 30.304C86.4746 29.504 87.6586 28.32 88.5546 26.752C89.4826 25.152 89.9466 23.2 89.9466 20.896C89.9466 18.592 89.4986 16.656 88.6026 15.088C87.7066 13.488 86.5226 12.304 85.0506 11.536C83.5786 10.736 81.9786 10.336 80.2506 10.336C78.5226 10.336 76.9226 10.736 75.4506 11.536C73.9786 12.304 72.7946 13.488 71.8986 15.088C71.0346 16.656 70.6026 18.592 70.6026 20.896C70.6026 23.2 71.0346 25.152 71.8986 26.752C72.7946 28.32 73.9626 29.504 75.4026 30.304C76.8746 31.072 78.4746 31.456 80.2026 31.456ZM130.728 7.312C133.8 7.312 136.296 8.288 138.216 10.24C140.168 12.16 141.144 14.96 141.144 18.64V34H137.832V19.024C137.832 16.176 137.144 14 135.768 12.496C134.392 10.992 132.52 10.24 130.152 10.24C127.688 10.24 125.72 11.056 124.248 12.688C122.776 14.32 122.04 16.688 122.04 19.792V34H118.728V19.024C118.728 16.176 118.04 14 116.664 12.496C115.288 10.992 113.4 10.24 111 10.24C108.536 10.24 106.568 11.056 105.096 12.688C103.624 14.32 102.888 16.688 102.888 19.792V34H99.5275V7.792H102.888V12.304C103.72 10.672 104.904 9.44 106.44 8.608C107.976 7.744 109.688 7.312 111.576 7.312C113.848 7.312 115.832 7.856 117.528 8.944C119.256 10.032 120.504 11.632 121.272 13.744C121.976 11.664 123.176 10.08 124.872 8.992C126.6 7.872 128.552 7.312 130.728 7.312ZM179.806 7.312C182.878 7.312 185.374 8.288 187.294 10.24C189.246 12.16 190.222 14.96 190.222 18.64V34H186.91V19.024C186.91 16.176 186.222 14 184.846 12.496C183.47 10.992 181.598 10.24 179.23 10.24C176.766 10.24 174.798 11.056 173.326 12.688C171.854 14.32 171.118 16.688 171.118 19.792V34H167.806V19.024C167.806 16.176 167.118 14 165.742 12.496C164.366 10.992 162.478 10.24 160.078 10.24C157.614 10.24 155.646 11.056 154.174 12.688C152.702 14.32 151.966 16.688 151.966 19.792V34H148.606V7.792H151.966V12.304C152.798 10.672 153.982 9.44 155.518 8.608C157.054 7.744 158.766 7.312 160.654 7.312C162.926 7.312 164.91 7.856 166.606 8.944C168.334 10.032 169.582 11.632 170.35 13.744C171.054 11.664 172.254 10.08 173.95 8.992C175.678 7.872 177.63 7.312 179.806 7.312ZM221.396 19.552C221.396 20.704 221.364 21.584 221.3 22.192H199.556C199.652 24.176 200.132 25.872 200.996 27.28C201.86 28.688 202.996 29.76 204.404 30.496C205.812 31.2 207.348 31.552 209.012 31.552C211.188 31.552 213.012 31.024 214.484 29.968C215.988 28.912 216.98 27.488 217.46 25.696H221.012C220.372 28.256 218.996 30.352 216.884 31.984C214.804 33.584 212.18 34.384 209.012 34.384C206.548 34.384 204.34 33.84 202.388 32.752C200.436 31.632 198.9 30.064 197.78 28.048C196.692 26 196.148 23.616 196.148 20.896C196.148 18.176 196.692 15.792 197.78 13.744C198.868 11.696 200.388 10.128 202.34 9.04C204.292 7.952 206.516 7.408 209.012 7.408C211.508 7.408 213.684 7.952 215.54 9.04C217.428 10.128 218.868 11.6 219.86 13.456C220.884 15.28 221.396 17.312 221.396 19.552ZM217.988 19.456C218.02 17.504 217.62 15.84 216.788 14.464C215.988 13.088 214.884 12.048 213.476 11.344C212.068 10.64 210.532 10.288 208.868 10.288C206.372 10.288 204.244 11.088 202.484 12.688C200.724 14.288 199.748 16.544 199.556 19.456H217.988ZM230.903 12.448C231.639 10.816 232.759 9.552 234.263 8.656C235.799 7.76 237.671 7.312 239.879 7.312V10.816H238.967C236.535 10.816 234.583 11.472 233.111 12.784C231.639 14.096 230.903 16.288 230.903 19.36V34H227.543V7.792H230.903V12.448ZM243.398 20.896C243.398 18.176 243.942 15.808 245.03 13.792C246.118 11.744 247.622 10.176 249.542 9.088C251.462 7.968 253.654 7.408 256.118 7.408C259.35 7.408 262.006 8.208 264.086 9.808C266.198 11.408 267.558 13.584 268.166 16.336H264.566C264.118 14.448 263.142 12.976 261.638 11.92C260.166 10.832 258.326 10.288 256.118 10.288C254.358 10.288 252.774 10.688 251.366 11.488C249.958 12.288 248.838 13.488 248.006 15.088C247.206 16.656 246.806 18.592 246.806 20.896C246.806 23.2 247.206 25.152 248.006 26.752C248.838 28.352 249.958 29.552 251.366 30.352C252.774 31.152 254.358 31.552 256.118 31.552C258.326 31.552 260.166 31.024 261.638 29.968C263.142 28.88 264.118 27.376 264.566 25.456H268.166C267.558 28.144 266.198 30.304 264.086 31.936C261.974 33.568 259.318 34.384 256.118 34.384C253.654 34.384 251.462 33.84 249.542 32.752C247.622 31.632 246.118 30.064 245.03 28.048C243.942 26 243.398 23.616 243.398 20.896ZM298.083 19.552C298.083 20.704 298.051 21.584 297.987 22.192H276.243C276.339 24.176 276.819 25.872 277.683 27.28C278.547 28.688 279.683 29.76 281.091 30.496C282.499 31.2 284.035 31.552 285.699 31.552C287.875 31.552 289.699 31.024 291.171 29.968C292.675 28.912 293.667 27.488 294.147 25.696H297.699C297.059 28.256 295.683 30.352 293.571 31.984C291.491 33.584 288.867 34.384 285.699 34.384C283.235 34.384 281.027 33.84 279.075 32.752C277.123 31.632 275.587 30.064 274.467 28.048C273.379 26 272.835 23.616 272.835 20.896C272.835 18.176 273.379 15.792 274.467 13.744C275.555 11.696 277.075 10.128 279.027 9.04C280.979 7.952 283.203 7.408 285.699 7.408C288.195 7.408 290.371 7.952 292.227 9.04C294.115 10.128 295.555 11.6 296.547 13.456C297.571 15.28 298.083 17.312 298.083 19.552ZM294.675 19.456C294.707 17.504 294.307 15.84 293.475 14.464C292.675 13.088 291.571 12.048 290.163 11.344C288.755 10.64 287.219 10.288 285.555 10.288C283.059 10.288 280.931 11.088 279.171 12.688C277.411 14.288 276.435 16.544 276.243 19.456H294.675Z" fill="#FAFAFA"/>
</svg>
